<?xml version="1.0" encoding="UTF-8"?>
<svg xmlns="http://www.w3.org/2000/svg" xmlns:xlink="http://www.w3.org/1999/xlink" width="20px" height="20px" viewBox="0 0 20 20" version="1.1">
<g id="surface1">
<path style=" stroke:none;fill-rule:nonzero;fill:rgb(79.215686%,77.254902%,75.294118%);fill-opacity:1;" d="M 20 10 C 20 15.523438 15.523438 20 10 20 C 4.476562 20 0 15.523438 0 10 C 0 4.476562 4.476562 0 10 0 C 15.523438 0 20 4.476562 20 10 Z M 20 10 "/>
<path style=" stroke:none;fill-rule:nonzero;fill:rgb(5.098039%,5.882353%,5.882353%);fill-opacity:1;" d="M 17.066406 11.785156 L 9.867188 11.785156 L 12.503906 9.90625 C 11.523438 9.128906 10.390625 8.742188 9.105469 8.742188 C 8.464844 8.742188 8.023438 8.863281 7.789062 9.109375 C 7.550781 9.355469 7.433594 9.796875 7.433594 10.4375 C 7.433594 12.214844 8.34375 14.105469 10.171875 16.117188 L 8.09375 18.222656 C 5.675781 15.28125 4.464844 12.652344 4.464844 10.339844 C 4.464844 8.953125 4.882812 7.847656 5.71875 7.027344 C 6.554688 6.210938 7.667969 5.800781 9.054688 5.800781 C 10.746094 5.800781 12.585938 6.441406 14.582031 7.726562 L 16.128906 5.089844 Z M 17.066406 11.785156 "/>
</g>
</svg>
