<?xml version="1.0" encoding="UTF-8"?>
<svg xmlns="http://www.w3.org/2000/svg" xmlns:xlink="http://www.w3.org/1999/xlink" width="20px" height="20px" viewBox="0 0 20 20" version="1.1">
<g id="surface1">
<path style=" stroke:none;fill-rule:nonzero;fill:rgb(79.215686%,77.254902%,75.294118%);fill-opacity:1;" d="M 20 10 C 20 15.523438 15.523438 20 10 20 C 4.476562 20 0 15.523438 0 10 C 0 4.476562 4.476562 0 10 0 C 15.523438 0 20 4.476562 20 10 Z M 20 10 "/>
<path style=" stroke:none;fill-rule:nonzero;fill:rgb(5.098039%,5.882353%,5.882353%);fill-opacity:1;" d="M 7.914062 10.511719 L 7.507812 9.757812 L 7.777344 9.597656 C 8.8125 8.96875 9.757812 8.332031 10.613281 7.683594 C 11.46875 7.039062 11.898438 6.300781 11.898438 5.472656 C 11.898438 4.917969 11.695312 4.453125 11.28125 4.074219 C 10.871094 3.695312 10.386719 3.507812 9.832031 3.507812 C 8.546875 3.507812 7.1875 4.308594 5.753906 5.90625 L 5.085938 5.394531 C 6.574219 3.132812 8.398438 2 10.550781 2 C 11.503906 2 12.3125 2.234375 12.976562 2.699219 C 13.730469 3.222656 14.109375 3.929688 14.109375 4.828125 C 14.109375 5.472656 13.839844 6.105469 13.300781 6.714844 C 12.996094 7.074219 12.453125 7.539062 11.683594 8.113281 L 11.359375 8.355469 C 11.503906 8.339844 11.675781 8.332031 11.871094 8.332031 C 12.859375 8.332031 13.671875 8.707031 14.308594 9.460938 C 14.949219 10.214844 15.265625 11.097656 15.265625 12.101562 C 15.265625 13.808594 14.546875 15.234375 13.113281 16.382812 C 11.78125 17.460938 10.246094 18 8.503906 18 C 6.90625 18 5.648438 17.648438 4.734375 16.949219 L 5.21875 16.277344 C 6.296875 16.796875 7.273438 17.058594 8.15625 17.058594 C 9.429688 17.058594 10.566406 16.636719 11.5625 15.792969 C 12.558594 14.945312 13.058594 13.898438 13.058594 12.640625 C 13.058594 11.8125 12.804688 11.109375 12.304688 10.523438 C 11.800781 9.941406 11.144531 9.648438 10.335938 9.648438 C 9.601562 9.652344 8.792969 9.9375 7.914062 10.511719 Z M 7.914062 10.511719 "/>
</g>
</svg>
