<?xml version="1.0" encoding="UTF-8"?>
<svg xmlns="http://www.w3.org/2000/svg" xmlns:xlink="http://www.w3.org/1999/xlink" width="20px" height="20px" viewBox="0 0 20 20" version="1.1">
<g id="surface1">
<path style=" stroke:none;fill-rule:nonzero;fill:rgb(79.215686%,77.254902%,75.294118%);fill-opacity:1;" d="M 20 10 C 20 15.523438 15.523438 20 10 20 C 4.476562 20 0 15.523438 0 10 C 0 4.476562 4.476562 0 10 0 C 15.523438 0 20 4.476562 20 10 Z M 20 10 "/>
<path style=" stroke:none;fill-rule:nonzero;fill:rgb(5.098039%,5.882353%,5.882353%);fill-opacity:1;" d="M 12.855469 13.472656 L 12.855469 14.816406 C 12.855469 16.351562 13.394531 17.121094 14.472656 17.121094 L 14.9375 17.121094 L 14.9375 18 L 8.40625 18 L 8.40625 17.121094 L 8.929688 17.121094 C 9.988281 17.121094 10.519531 16.363281 10.519531 14.84375 L 10.519531 13.472656 L 3.960938 13.472656 L 3.960938 12.097656 L 10.878906 2 L 12.855469 2 L 12.855469 12.320312 L 13.019531 12.320312 C 13.695312 12.320312 14.1875 11.796875 14.5 10.753906 L 15.324219 10.753906 L 14.9375 13.472656 Z M 10.519531 12.320312 L 10.519531 4.027344 L 4.941406 12.320312 Z M 10.519531 12.320312 "/>
</g>
</svg>
