<?xml version="1.0" encoding="UTF-8"?>
<svg xmlns="http://www.w3.org/2000/svg" xmlns:xlink="http://www.w3.org/1999/xlink" width="20px" height="20px" viewBox="0 0 20 20" version="1.1">
<g id="surface1">
<path style=" stroke:none;fill-rule:nonzero;fill:rgb(79.215686%,77.254902%,75.294118%);fill-opacity:1;" d="M 20 10 C 20 15.523438 15.523438 20 10 20 C 4.476562 20 0 15.523438 0 10 C 0 4.476562 4.476562 0 10 0 C 15.523438 0 20 4.476562 20 10 Z M 20 10 "/>
<path style=" stroke:none;fill-rule:nonzero;fill:rgb(5.098039%,5.882353%,5.882353%);fill-opacity:1;" d="M 11.136719 2 L 11.136719 14.820312 C 11.136719 16.355469 11.78125 17.121094 13.074219 17.121094 L 13.410156 17.121094 L 13.410156 18 L 6.589844 18 L 6.589844 17.121094 L 7.015625 17.121094 C 8.265625 17.121094 8.890625 16.355469 8.890625 14.820312 L 8.890625 6.410156 C 8.890625 4.859375 8.351562 4.082031 7.273438 4.082031 L 6.589844 4.082031 L 6.589844 3.234375 L 6.835938 3.234375 C 8.167969 3.234375 9.375 2.820312 10.453125 2 Z M 11.136719 2 "/>
</g>
</svg>
