<?xml version="1.0" encoding="UTF-8"?>
<svg xmlns="http://www.w3.org/2000/svg" xmlns:xlink="http://www.w3.org/1999/xlink" width="20px" height="20px" viewBox="0 0 20 20" version="1.1">
<g id="surface1">
<path style=" stroke:none;fill-rule:nonzero;fill:rgb(79.215686%,77.254902%,75.294118%);fill-opacity:1;" d="M 20 10 C 20 15.523438 15.523438 20 10 20 C 4.476562 20 0 15.523438 0 10 C 0 4.476562 4.476562 0 10 0 C 15.523438 0 20 4.476562 20 10 Z M 20 10 "/>
<path style=" stroke:none;fill-rule:nonzero;fill:rgb(5.098039%,5.882353%,5.882353%);fill-opacity:1;" d="M 6.992188 2.269531 L 12.78125 2.269531 C 13.53125 2.269531 13.976562 2.179688 14.121094 2 L 14.953125 2 L 14.46875 4.183594 L 7.402344 4.183594 L 6.722656 7.34375 C 7.746094 6.929688 8.65625 6.722656 9.449219 6.722656 C 10.992188 6.722656 12.296875 7.238281 13.359375 8.273438 C 14.421875 9.308594 14.953125 10.597656 14.953125 12.144531 C 14.953125 13.945312 14.257812 15.390625 12.871094 16.488281 C 11.597656 17.496094 10.039062 18 8.207031 18 C 7.125 18 6.074219 17.839844 5.046875 17.515625 L 5.371094 16.707031 C 6.234375 16.9375 7 17.054688 7.664062 17.054688 C 8.996094 17.054688 10.160156 16.621094 11.160156 15.746094 C 12.15625 14.875 12.65625 13.78125 12.65625 12.46875 C 12.65625 11.335938 12.289062 10.40625 11.550781 9.675781 C 10.8125 8.949219 9.878906 8.582031 8.746094 8.582031 C 7.703125 8.582031 6.730469 8.941406 5.832031 9.664062 L 5.289062 9.554688 Z M 6.992188 2.269531 "/>
</g>
</svg>
