<?xml version="1.0" encoding="UTF-8"?>
<svg xmlns="http://www.w3.org/2000/svg" xmlns:xlink="http://www.w3.org/1999/xlink" width="20px" height="20px" viewBox="0 0 20 20" version="1.1">
<g id="surface1">
<path style=" stroke:none;fill-rule:nonzero;fill:rgb(79.215686%,77.254902%,75.294118%);fill-opacity:1;" d="M 20 10 C 20 15.523438 15.523438 20 10 20 C 4.476562 20 0 15.523438 0 10 C 0 4.476562 4.476562 0 10 0 C 15.523438 0 20 4.476562 20 10 Z M 20 10 "/>
<path style=" stroke:none;fill-rule:nonzero;fill:rgb(5.098039%,5.882353%,5.882353%);fill-opacity:1;" d="M 10.699219 18 L 8.371094 18 L 8.371094 17.753906 C 8.371094 16.273438 8.835938 14.421875 9.765625 12.191406 C 11.171875 8.832031 12.46875 6.257812 13.65625 4.464844 L 13.820312 4.21875 L 8.371094 4.21875 C 7.585938 4.21875 6.984375 4.382812 6.574219 4.710938 C 6.164062 5.042969 5.859375 5.589844 5.65625 6.355469 L 4.753906 6.355469 L 5.738281 2 L 6.316406 2 C 6.660156 2.183594 7.261719 2.273438 8.125 2.273438 L 15.246094 2.273438 L 15.246094 3.507812 C 14.988281 3.875 14.660156 4.457031 14.261719 5.261719 C 13.492188 6.757812 12.789062 8.503906 12.148438 10.492188 C 11.199219 13.433594 10.71875 15.933594 10.699219 18 Z M 10.699219 18 "/>
</g>
</svg>
