<?xml version="1.0" encoding="UTF-8"?>
<svg xmlns="http://www.w3.org/2000/svg" xmlns:xlink="http://www.w3.org/1999/xlink" width="20px" height="20px" viewBox="0 0 20 20" version="1.1">
<g id="surface1">
<path style=" stroke:none;fill-rule:evenodd;fill:rgb(79.215686%,77.254902%,75.294118%);fill-opacity:1;" d="M 20 10 C 20 15.523438 15.523438 20 10 20 C 4.476562 20 0 15.523438 0 10 C 0 4.476562 4.476562 0 10 0 C 15.523438 0 20 4.476562 20 10 Z M 20 10 "/>
<path style=" stroke:none;fill-rule:evenodd;fill:rgb(5.098039%,5.882353%,5.882353%);fill-opacity:1;" d="M 15.6875 13.820312 L 14.550781 17.800781 L 5.109375 17.800781 L 5.109375 16.949219 C 5.570312 16.417969 6.574219 15.347656 8.125 13.738281 C 9.082031 12.742188 10.007812 11.71875 10.902344 10.664062 C 11.359375 10.136719 11.714844 9.675781 11.960938 9.292969 C 12.507812 8.46875 12.78125 7.628906 12.78125 6.769531 C 12.78125 5.925781 12.527344 5.183594 12.027344 4.546875 C 11.523438 3.90625 10.875 3.582031 10.082031 3.582031 C 8.371094 3.582031 7.03125 4.785156 6.0625 7.179688 L 5.214844 6.851562 C 6.363281 3.484375 8.167969 1.800781 10.636719 1.800781 C 11.855469 1.800781 12.890625 2.230469 13.746094 3.089844 C 14.601562 3.949219 15.027344 5.011719 15.027344 6.273438 C 15.027344 7.882812 14.136719 9.457031 12.355469 10.996094 L 10.507812 12.585938 C 9.324219 13.609375 8.34375 14.570312 7.570312 15.46875 C 7.515625 15.523438 7.410156 15.652344 7.253906 15.851562 L 12.171875 15.851562 C 12.929688 15.851562 13.503906 15.695312 13.890625 15.386719 C 14.226562 15.109375 14.550781 14.589844 14.871094 13.820312 Z M 15.6875 13.820312 "/>
</g>
</svg>
