<?xml version="1.0" encoding="UTF-8"?>
<svg xmlns="http://www.w3.org/2000/svg" xmlns:xlink="http://www.w3.org/1999/xlink" width="20px" height="20px" viewBox="0 0 20 20" version="1.1">
<g id="surface1">
<path style=" stroke:none;fill-rule:nonzero;fill:rgb(79.215686%,77.254902%,75.294118%);fill-opacity:1;" d="M 20 10 C 20 15.523438 15.523438 20 10 20 C 4.476562 20 0 15.523438 0 10 C 0 4.476562 4.476562 0 10 0 C 15.523438 0 20 4.476562 20 10 Z M 20 10 "/>
<path style=" stroke:none;fill-rule:nonzero;fill:rgb(5.098039%,5.882353%,5.882353%);fill-opacity:1;" d="M 7.316406 8.933594 C 8.503906 7.820312 9.699219 7.261719 10.902344 7.261719 C 12.214844 7.261719 13.269531 7.785156 14.0625 8.828125 C 14.796875 9.78125 15.167969 10.929688 15.167969 12.28125 C 15.167969 13.753906 14.734375 15.050781 13.871094 16.164062 C 12.917969 17.386719 11.730469 18 10.3125 18 C 8.601562 18 7.234375 17.261719 6.210938 15.789062 C 5.292969 14.492188 4.832031 12.953125 4.832031 11.171875 C 4.832031 9.285156 5.355469 7.546875 6.398438 5.953125 C 7.441406 4.363281 8.835938 3.234375 10.578125 2.566406 C 11.570312 2.191406 12.613281 2 13.710938 2 L 13.710938 2.835938 C 11.371094 2.960938 9.625 3.898438 8.472656 5.644531 C 7.882812 6.542969 7.496094 7.640625 7.316406 8.933594 Z M 7.152344 10.554688 C 7.136719 10.878906 7.128906 11.199219 7.128906 11.523438 C 7.128906 12.765625 7.34375 13.917969 7.773438 14.980469 C 8.332031 16.363281 9.152344 17.054688 10.230469 17.054688 C 11.164062 17.054688 11.867188 16.578125 12.335938 15.625 C 12.695312 14.886719 12.875 14 12.875 12.953125 C 12.875 11.839844 12.703125 10.886719 12.359375 10.09375 C 11.894531 9.015625 11.171875 8.476562 10.203125 8.476562 C 9.015625 8.476562 8 9.167969 7.152344 10.554688 Z M 7.152344 10.554688 "/>
</g>
</svg>
