<?xml version="1.0" encoding="UTF-8"?>
<svg xmlns="http://www.w3.org/2000/svg" xmlns:xlink="http://www.w3.org/1999/xlink" width="20px" height="20px" viewBox="0 0 20 20" version="1.1">
<g id="surface1">
<path style=" stroke:none;fill-rule:nonzero;fill:rgb(79.215686%,77.254902%,75.294118%);fill-opacity:1;" d="M 20 10 C 20 15.523438 15.523438 20 10 20 C 4.476562 20 0 15.523438 0 10 C 0 4.476562 4.476562 0 10 0 C 15.523438 0 20 4.476562 20 10 Z M 20 10 "/>
<path style=" stroke:none;fill-rule:nonzero;fill:rgb(5.098039%,5.882353%,5.882353%);fill-opacity:1;" d="M 11.328125 16 L 11.328125 15.339844 C 12.269531 15.238281 12.738281 14.964844 12.738281 14.523438 C 12.738281 14.207031 12.613281 13.890625 12.363281 13.574219 L 9.761719 10.371094 L 7.707031 12.796875 C 7.191406 13.390625 6.933594 13.882812 6.933594 14.265625 C 6.933594 14.859375 7.40625 15.21875 8.347656 15.34375 L 8.347656 16 L 3.339844 16 L 3.339844 15.34375 C 3.972656 15.222656 4.511719 14.992188 4.957031 14.660156 C 5.265625 14.414062 5.6875 13.984375 6.214844 13.371094 L 9.304688 9.789062 L 5.730469 5.457031 C 5.269531 4.898438 4.90625 4.53125 4.652344 4.355469 C 4.308594 4.109375 3.828125 3.953125 3.210938 3.882812 L 3.210938 3.199219 L 9.121094 3.199219 L 9.121094 3.855469 C 8.230469 4.03125 7.785156 4.304688 7.785156 4.671875 C 7.785156 4.917969 7.902344 5.1875 8.144531 5.484375 L 10.503906 8.351562 L 12.40625 6.011719 C 12.75 5.589844 12.921875 5.222656 12.921875 4.910156 C 12.921875 4.382812 12.5 4.039062 11.660156 3.882812 L 11.660156 3.199219 L 16.363281 3.199219 L 16.363281 3.859375 C 15.953125 3.945312 15.667969 4.023438 15.519531 4.097656 C 15.003906 4.339844 14.21875 5.070312 13.15625 6.28125 C 12.988281 6.472656 12.269531 7.359375 11 8.9375 L 14.796875 13.609375 C 15.617188 14.625 16.457031 15.203125 17.3125 15.34375 L 17.3125 16 Z M 11.328125 16 "/>
</g>
</svg>
